<svg width="2328" height="932" viewBox="0 0 2328 932" fill="none" xmlns="http://www.w3.org/2000/svg">
<rect width="2328" height="932" fill="url(#paint0_linear_36_3)"/>
<path fill-rule="evenodd" clip-rule="evenodd" d="M1069.5 519.119C1070.33 519.119 1071 519.791 1071 520.619V531.857H1080.54C1081.37 531.857 1082.04 532.529 1082.04 533.357C1082.04 534.186 1081.37 534.857 1080.54 534.857H1069.5C1068.67 534.857 1068 534.186 1068 533.357V520.619C1068 519.791 1068.67 519.119 1069.5 519.119ZM1124.7 531.857C1125.53 531.857 1126.2 532.529 1126.2 533.357C1126.2 534.186 1125.53 534.857 1124.7 534.857H1102.62C1101.79 534.857 1101.12 534.186 1101.12 533.357C1101.12 532.529 1101.79 531.857 1102.62 531.857H1124.7ZM1168.86 531.857C1169.69 531.858 1170.36 532.529 1170.36 533.357C1170.36 534.186 1169.69 534.857 1168.86 534.857H1146.78C1145.95 534.857 1145.28 534.186 1145.28 533.357C1145.28 532.529 1145.95 531.857 1146.78 531.857H1168.86ZM1213.02 531.857C1213.85 531.857 1214.52 532.529 1214.52 533.357C1214.52 534.186 1213.85 534.857 1213.02 534.857H1190.94C1190.11 534.857 1189.44 534.186 1189.44 533.357C1189.44 532.529 1190.11 531.857 1190.94 531.857H1213.02ZM1257.18 531.857C1258.01 531.858 1258.68 532.529 1258.68 533.357C1258.68 534.186 1258.01 534.857 1257.18 534.857H1235.1C1234.27 534.857 1233.6 534.186 1233.6 533.357C1233.6 532.529 1234.27 531.857 1235.1 531.857H1257.18ZM1301.34 531.857C1302.17 531.857 1302.84 532.529 1302.84 533.357C1302.84 534.186 1302.17 534.857 1301.34 534.857H1279.26C1278.43 534.857 1277.76 534.186 1277.76 533.357C1277.76 532.529 1278.43 531.858 1279.26 531.857H1301.34ZM1345.5 531.857C1346.33 531.858 1347 532.529 1347 533.357C1347 534.186 1346.33 534.857 1345.5 534.857H1323.42C1322.59 534.857 1321.92 534.186 1321.92 533.357C1321.92 532.529 1322.59 531.857 1323.42 531.857H1345.5ZM1389.66 531.857C1390.49 531.857 1391.16 532.529 1391.16 533.357C1391.16 534.186 1390.49 534.857 1389.66 534.857H1367.58C1366.75 534.857 1366.08 534.186 1366.08 533.357C1366.08 532.529 1366.75 531.858 1367.58 531.857H1389.66ZM1433.82 531.857C1434.64 531.857 1435.32 532.529 1435.32 533.357C1435.32 534.186 1434.64 534.857 1433.82 534.857H1411.74C1410.91 534.857 1410.24 534.186 1410.24 533.357C1410.24 532.529 1410.91 531.857 1411.74 531.857H1433.82ZM1477.98 531.857C1478.8 531.857 1479.48 532.529 1479.48 533.357C1479.48 534.186 1478.8 534.857 1477.98 534.857H1455.9C1455.07 534.857 1454.4 534.186 1454.4 533.357C1454.4 532.529 1455.07 531.857 1455.9 531.857H1477.98ZM1522.14 531.857C1522.96 531.857 1523.64 532.529 1523.64 533.357C1523.64 534.186 1522.96 534.857 1522.14 534.857H1500.06C1499.23 534.857 1498.56 534.186 1498.56 533.357C1498.56 532.529 1499.23 531.857 1500.06 531.857H1522.14ZM1566.3 531.857C1567.12 531.858 1567.8 532.529 1567.8 533.357C1567.8 534.186 1567.12 534.857 1566.3 534.857H1544.22C1543.39 534.857 1542.72 534.186 1542.72 533.357C1542.72 532.529 1543.39 531.857 1544.22 531.857H1566.3ZM1610.46 531.857C1611.28 531.857 1611.95 532.529 1611.96 533.357C1611.95 534.186 1611.28 534.857 1610.46 534.857H1588.38C1587.55 534.857 1586.88 534.186 1586.88 533.357C1586.88 532.529 1587.55 531.858 1588.38 531.857H1610.46ZM1654.62 531.857C1655.44 531.858 1656.11 532.529 1656.12 533.357C1656.12 534.186 1655.44 534.857 1654.62 534.857H1632.54C1631.71 534.857 1631.04 534.186 1631.04 533.357C1631.04 532.529 1631.71 531.857 1632.54 531.857H1654.62ZM1698.77 531.857C1699.6 531.857 1700.27 532.529 1700.27 533.357C1700.27 534.186 1699.6 534.857 1698.77 534.857H1676.69C1675.87 534.857 1675.19 534.186 1675.19 533.357C1675.19 532.529 1675.87 531.858 1676.69 531.857H1698.77ZM1742.93 531.857C1743.76 531.858 1744.43 532.529 1744.43 533.357C1744.43 534.186 1743.76 534.857 1742.93 534.857H1720.85C1720.03 534.857 1719.35 534.186 1719.35 533.357C1719.35 532.529 1720.03 531.857 1720.85 531.857H1742.93ZM1787.09 531.857C1787.92 531.857 1788.59 532.529 1788.59 533.357C1788.59 534.186 1787.92 534.857 1787.09 534.857H1765.01C1764.19 534.857 1763.51 534.186 1763.51 533.357C1763.51 532.529 1764.19 531.858 1765.01 531.857H1787.09ZM1831.25 531.857C1832.08 531.858 1832.75 532.529 1832.75 533.357C1832.75 534.186 1832.08 534.857 1831.25 534.857H1809.17C1808.35 534.857 1807.67 534.186 1807.67 533.357C1807.67 532.529 1808.35 531.857 1809.17 531.857H1831.25ZM1875.41 531.857C1876.24 531.857 1876.91 532.529 1876.91 533.357C1876.91 534.186 1876.24 534.857 1875.41 534.857H1853.33C1852.5 534.857 1851.83 534.186 1851.83 533.357C1851.83 532.529 1852.5 531.858 1853.33 531.857H1875.41ZM1919.57 531.857C1920.4 531.858 1921.07 532.529 1921.07 533.357C1921.07 534.186 1920.4 534.857 1919.57 534.857H1897.49C1896.66 534.857 1895.99 534.186 1895.99 533.357C1895.99 532.529 1896.66 531.857 1897.49 531.857H1919.57ZM1963.73 531.857C1964.56 531.857 1965.23 532.529 1965.23 533.357C1965.23 534.186 1964.56 534.857 1963.73 534.857H1941.65C1940.82 534.857 1940.15 534.186 1940.15 533.357C1940.15 532.529 1940.82 531.858 1941.65 531.857H1963.73ZM2007.89 531.857C2008.72 531.858 2009.39 532.529 2009.39 533.357C2009.39 534.186 2008.72 534.857 2007.89 534.857H1985.81C1984.98 534.857 1984.31 534.186 1984.31 533.357C1984.31 532.529 1984.98 531.857 1985.81 531.857H2007.89ZM2052.05 531.857C2052.88 531.857 2053.55 532.529 2053.55 533.357C2053.55 534.186 2052.88 534.857 2052.05 534.857H2029.97C2029.14 534.857 2028.47 534.186 2028.47 533.357C2028.47 532.529 2029.14 531.858 2029.97 531.857H2052.05ZM2096.21 531.857C2097.04 531.858 2097.71 532.529 2097.71 533.357C2097.71 534.186 2097.04 534.857 2096.21 534.857H2074.13C2073.3 534.857 2072.63 534.186 2072.63 533.357C2072.63 532.529 2073.3 531.857 2074.13 531.857H2096.21ZM2129.33 519.119C2130.16 519.119 2130.83 519.791 2130.83 520.619V533.357C2130.83 534.186 2130.16 534.857 2129.33 534.857H2118.29C2117.46 534.857 2116.79 534.186 2116.79 533.357C2116.79 532.529 2117.46 531.858 2118.29 531.857H2127.83V520.619C2127.83 519.791 2128.5 519.119 2129.33 519.119ZM1903.88 432.021C1904.32 432.021 1904.84 432.309 1905.41 432.885C1905.99 433.461 1906.5 434.133 1906.95 434.9C1907.4 435.604 1907.62 436.276 1907.62 436.916C1907.62 438.132 1906.66 439.156 1904.74 439.988C1902.89 440.756 1900.39 441.268 1897.25 441.524C1898.98 443.828 1899.84 446.676 1899.84 450.068V480.98C1899.84 482.452 1898.56 483.188 1896 483.188C1893.44 483.188 1892.17 482.452 1892.17 480.98V449.108C1892.17 446.805 1891.11 444.981 1889 443.637C1886.89 442.293 1883.59 441.62 1879.11 441.62C1874.82 441.62 1871.56 442.26 1869.32 443.54C1867.08 444.82 1865.96 446.676 1865.96 449.108V475.604C1865.96 479.316 1866.5 481.941 1867.59 483.477C1868.74 485.012 1870.69 485.78 1873.44 485.78H1881.03C1887.43 485.78 1892.16 487.029 1895.24 489.524C1898.31 492.02 1899.84 495.828 1899.84 500.948V501.332C1899.84 506.452 1898.31 510.261 1895.24 512.757C1892.16 515.253 1887.43 516.5 1881.03 516.5H1859.24C1857.96 516.5 1857.32 515.38 1857.32 513.141C1857.32 510.901 1857.96 509.781 1859.24 509.78H1881.03C1884.93 509.78 1887.75 509.172 1889.48 507.956C1891.27 506.804 1892.17 504.916 1892.17 502.292V499.988C1892.16 497.364 1891.27 495.444 1889.48 494.229C1887.75 493.077 1884.93 492.5 1881.03 492.5H1873.44C1868 492.5 1864.1 491.188 1861.73 488.564C1859.43 485.94 1858.28 481.62 1858.28 475.604V450.068C1858.28 445.141 1860.07 441.397 1863.65 438.837C1867.24 436.213 1872.39 434.9 1879.11 434.9H1892.55C1895.24 434.9 1897.32 434.677 1898.79 434.229C1900.32 433.717 1901.44 433.236 1902.15 432.788C1902.92 432.276 1903.49 432.021 1903.88 432.021ZM1069.5 468.167C1070.33 468.167 1071 468.839 1071 469.667V495.143C1071 495.971 1070.33 496.643 1069.5 496.643C1068.67 496.643 1068 495.971 1068 495.143V469.667C1068 468.839 1068.67 468.167 1069.5 468.167ZM2129.33 468.167C2130.16 468.167 2130.83 468.839 2130.83 469.667V495.143C2130.83 495.971 2130.16 496.643 2129.33 496.643C2128.5 496.643 2127.83 495.971 2127.83 495.143V469.667C2127.83 468.839 2128.5 468.167 2129.33 468.167ZM1138.51 420.021C1145.55 420.021 1150.87 421.332 1154.45 423.956C1158.1 426.516 1159.92 430.26 1159.92 435.188V441.141C1159.92 442.612 1158.64 443.349 1156.08 443.349C1153.52 443.349 1152.24 442.612 1152.24 441.141V434.229C1152.24 429.237 1147.66 426.74 1138.51 426.74C1133.84 426.74 1130.26 427.38 1127.76 428.66C1125.33 429.94 1124.11 431.797 1124.11 434.229V479.732C1124.11 482.164 1125.33 484.021 1127.76 485.301C1130.26 486.581 1133.84 487.221 1138.51 487.221C1147.66 487.221 1152.24 484.724 1152.24 479.732V472.82C1152.24 471.348 1153.52 470.612 1156.08 470.612C1158.64 470.612 1159.92 471.348 1159.92 472.82V478.772C1159.92 483.7 1158.1 487.477 1154.45 490.101C1150.87 492.661 1145.55 493.94 1138.51 493.94C1131.34 493.94 1125.87 492.629 1122.1 490.005C1118.32 487.381 1116.43 483.636 1116.43 478.772V435.188C1116.43 430.26 1118.32 426.516 1122.1 423.956C1125.87 421.332 1131.34 420.021 1138.51 420.021ZM1197.92 433.46C1204.64 433.46 1209.79 434.772 1213.38 437.396C1216.96 439.956 1218.75 443.701 1218.75 448.629V478.772C1218.75 483.636 1216.96 487.381 1213.38 490.005C1209.86 492.629 1204.73 493.94 1198.01 493.94C1191.29 493.94 1186.14 492.629 1182.56 490.005C1178.97 487.381 1177.18 483.636 1177.18 478.772V448.629C1177.18 443.701 1178.94 439.956 1182.46 437.396C1186.05 434.772 1191.2 433.46 1197.92 433.46ZM1275.66 415.7C1278.22 415.7 1279.5 416.436 1279.5 417.908V478.772C1279.5 483.636 1277.71 487.381 1274.12 490.005C1270.61 492.629 1265.48 493.94 1258.76 493.94C1252.04 493.94 1246.89 492.629 1243.31 490.005C1239.72 487.381 1237.93 483.636 1237.93 478.772V450.068C1237.93 445.141 1239.69 441.397 1243.21 438.837C1246.8 436.213 1251.95 434.9 1258.67 434.9H1267.02C1268.3 434.901 1268.94 436.021 1268.94 438.261C1268.94 440.5 1268.3 441.62 1267.02 441.62H1258.67C1249.97 441.62 1245.61 444.116 1245.61 449.108V479.732C1245.61 482.164 1246.73 484.021 1248.97 485.301C1251.21 486.581 1254.48 487.221 1258.76 487.221C1267.47 487.221 1271.82 484.724 1271.82 479.732V417.908C1271.82 416.436 1273.1 415.7 1275.66 415.7ZM1321.99 433.46C1328.71 433.46 1333.67 434.677 1336.87 437.108C1340.07 439.54 1341.67 443.317 1341.67 448.437V451.316C1341.67 454.836 1341.19 457.653 1340.23 459.765C1339.33 461.813 1337.76 463.348 1335.52 464.372C1333.28 465.396 1330.12 466.1 1326.02 466.484L1307.3 468.309V479.732C1307.3 484.724 1311.46 487.221 1319.78 487.221C1324.64 487.221 1328.23 486.677 1330.53 485.589C1332.84 484.501 1333.99 482.868 1333.99 480.692V477.044C1333.99 475.572 1335.27 474.837 1337.83 474.837C1340.39 474.837 1341.67 475.572 1341.67 477.044V479.732C1341.67 489.204 1334.63 493.94 1320.55 493.94C1313.83 493.94 1308.64 492.629 1305 490.005C1301.41 487.381 1299.62 483.636 1299.62 478.772V448.629C1299.62 443.701 1301.54 439.956 1305.38 437.396C1309.28 434.773 1314.82 433.46 1321.99 433.46ZM1470.87 420.98C1473.3 420.98 1474.51 421.556 1474.51 422.708C1474.58 422.644 1474.61 422.645 1474.61 422.708C1474.61 422.772 1474.58 422.836 1474.51 422.9L1466.83 480.788C1466.19 484.116 1465.3 486.74 1464.15 488.66C1462.99 490.58 1461.43 491.924 1459.44 492.692C1457.52 493.524 1454.96 493.94 1451.76 493.94C1446.71 493.94 1443.03 492.916 1440.72 490.868C1438.42 488.82 1437.07 485.46 1436.69 480.788L1434.48 457.173H1433.52L1431.31 480.788C1430.87 485.524 1429.46 488.917 1427.09 490.965C1424.79 492.949 1421.17 493.94 1416.24 493.94C1411.31 493.94 1407.7 492.949 1405.39 490.965C1403.15 488.981 1401.75 485.588 1401.17 480.788L1393.49 422.9C1393.55 422.836 1393.59 422.772 1393.59 422.708C1393.59 422.644 1393.55 422.644 1393.49 422.708C1393.49 421.556 1394.71 420.98 1397.14 420.98C1399.57 420.981 1400.91 421.717 1401.17 423.188L1408.66 479.732C1409.04 482.548 1409.75 484.501 1410.77 485.589C1411.86 486.677 1413.68 487.221 1416.24 487.221C1418.8 487.221 1420.66 486.677 1421.81 485.589C1423.03 484.437 1423.83 482.484 1424.21 479.732L1430.16 431.925C1430.29 430.453 1431.57 429.717 1434 429.717C1436.37 429.717 1437.65 430.453 1437.84 431.925L1443.79 479.732C1444.11 482.484 1444.88 484.437 1446.1 485.589C1447.31 486.677 1449.2 487.221 1451.76 487.221C1454.19 487.221 1455.92 486.708 1456.95 485.685C1457.97 484.661 1458.77 482.676 1459.35 479.732L1466.83 423.188C1467.15 421.717 1468.5 420.981 1470.87 420.98ZM1942.33 433.46C1949.05 433.46 1954.01 434.677 1957.21 437.108C1960.41 439.54 1962.01 443.317 1962.01 448.437V451.316C1962.01 454.836 1961.53 457.653 1960.57 459.765C1959.68 461.813 1958.11 463.348 1955.87 464.372C1953.63 465.396 1950.46 466.1 1946.36 466.484L1927.64 468.309V479.732C1927.64 484.724 1931.8 487.221 1940.12 487.221C1944.99 487.221 1948.57 486.677 1950.88 485.589C1953.18 484.501 1954.33 482.868 1954.33 480.692V477.044C1954.33 475.572 1955.61 474.837 1958.17 474.837C1960.73 474.837 1962.01 475.572 1962.01 477.044V479.732C1962.01 489.204 1954.97 493.94 1940.89 493.94C1934.17 493.94 1928.99 492.629 1925.34 490.005C1921.76 487.381 1919.96 483.636 1919.96 478.772V448.629C1919.96 443.701 1921.88 439.956 1925.72 437.396C1929.63 434.773 1935.16 433.46 1942.33 433.46ZM2001.25 433.46C2014.69 433.46 2021.41 438.453 2021.41 448.437V451.797C2021.41 453.141 2020.29 453.812 2018.05 453.812C2015.23 453.812 2013.82 453.045 2013.82 451.509V447.765C2013.82 442.709 2009.7 440.181 2001.44 440.181C1997.66 440.181 1994.72 440.821 1992.61 442.101C1990.5 443.317 1989.44 445.077 1989.44 447.381V449.492C1989.44 451.668 1989.6 453.364 1989.92 454.58C1990.24 455.732 1990.91 456.629 1991.93 457.269C1992.96 457.845 1994.49 458.388 1996.54 458.9L2004.89 461.013C2009.5 462.165 2013.02 463.348 2015.46 464.564C2017.89 465.716 2019.52 467.22 2020.35 469.076C2021.25 470.868 2021.7 473.3 2021.7 476.372V479.828C2021.7 484.372 2019.9 487.86 2016.32 490.292C2012.74 492.724 2007.58 493.94 2000.86 493.94C1987.1 493.94 1980.22 488.853 1980.22 478.677V475.604C1980.22 474.837 1980.51 474.293 1981.09 473.973C1981.66 473.653 1982.66 473.492 1984.06 473.492C1985.15 473.492 1986.05 473.716 1986.75 474.164C1987.45 474.612 1987.81 475.189 1987.81 475.893V480.213C1987.81 482.645 1988.86 484.437 1990.97 485.589C1993.09 486.677 1996.41 487.221 2000.96 487.221C2009.73 487.221 2014.11 484.98 2014.11 480.5V475.412C2014.11 473.492 2013.38 471.988 2011.9 470.9C2010.5 469.748 2007.9 468.692 2004.13 467.732L1995.68 465.62C1991.84 464.66 1988.93 463.604 1986.94 462.452C1984.96 461.3 1983.62 459.732 1982.91 457.748C1982.21 455.7 1981.86 452.852 1981.86 449.204V448.053C1981.86 443.317 1983.52 439.7 1986.85 437.204C1990.24 434.708 1995.04 433.46 2001.25 433.46ZM1495.67 434.421C1498.23 434.421 1499.51 435.157 1499.51 436.629V481.269C1499.51 482.996 1499.73 484.404 1500.18 485.492C1500.69 486.58 1501.17 487.477 1501.62 488.181C1502.13 488.821 1502.39 489.333 1502.39 489.717C1502.39 490.165 1502.1 490.709 1501.53 491.349C1500.95 491.924 1500.28 492.404 1499.51 492.788C1498.81 493.236 1498.13 493.46 1497.49 493.46C1496.6 493.46 1495.7 492.916 1494.81 491.828C1493.91 490.676 1493.17 489.237 1492.6 487.509C1492.09 485.781 1491.83 484.02 1491.83 482.229V436.629C1491.83 435.157 1493.11 434.421 1495.67 434.421ZM1528.29 421.46C1530.85 421.46 1532.13 422.196 1532.13 423.668V434.9H1542.21C1543.49 434.9 1544.13 436.021 1544.13 438.261C1544.13 440.5 1543.49 441.62 1542.21 441.62H1532.13V481.269C1532.13 482.996 1532.36 484.404 1532.8 485.492C1533.32 486.58 1533.8 487.477 1534.24 488.181C1534.76 488.821 1535.01 489.333 1535.01 489.717C1535.01 490.165 1534.72 490.709 1534.15 491.349C1533.57 491.924 1532.9 492.404 1532.13 492.788C1531.43 493.236 1530.76 493.46 1530.12 493.46C1529.22 493.46 1528.32 492.916 1527.43 491.828C1526.53 490.676 1525.8 489.237 1525.22 487.509C1524.71 485.781 1524.45 484.02 1524.45 482.229V441.62H1516.77C1515.49 441.62 1514.85 440.5 1514.85 438.261C1514.85 436.021 1515.49 434.901 1516.77 434.9H1524.45V423.668C1524.45 422.196 1525.73 421.46 1528.29 421.46ZM1754.71 434.9C1761.43 434.9 1766.55 436.213 1770.07 438.837C1773.65 441.397 1775.44 445.141 1775.44 450.068V478.389C1775.44 481.077 1775.67 483.189 1776.11 484.725C1776.63 486.196 1777.11 487.316 1777.55 488.084C1778.07 488.788 1778.32 489.333 1778.32 489.717C1778.32 490.165 1778.03 490.709 1777.46 491.349C1776.88 491.924 1776.21 492.404 1775.44 492.788C1774.74 493.236 1774.07 493.46 1773.43 493.46C1772.4 493.46 1771.44 492.82 1770.55 491.54C1769.71 490.196 1769.04 488.468 1768.53 486.356C1768.02 484.181 1767.76 481.845 1767.76 479.349V466.484L1751.73 468.116C1748.4 468.436 1746.19 469.172 1745.11 470.324C1744.02 471.476 1743.47 473.556 1743.47 476.564V477.332C1743.47 480.596 1744.05 482.837 1745.2 484.053C1746.42 485.205 1748.59 485.78 1751.73 485.78H1762.96C1764.24 485.78 1764.88 486.901 1764.88 489.141C1764.88 491.38 1764.24 492.5 1762.96 492.5H1751.73C1746.03 492.5 1741.94 491.348 1739.44 489.044C1737.01 486.676 1735.79 482.772 1735.79 477.332V476.564C1735.79 473.045 1736.24 470.261 1737.14 468.213C1738.03 466.101 1739.6 464.533 1741.84 463.509C1744.08 462.485 1747.19 461.78 1751.15 461.396L1767.76 459.765V449.108C1767.76 444.116 1763.41 441.62 1754.71 441.62H1741.55C1740.27 441.62 1739.63 440.501 1739.63 438.261C1739.63 436.021 1740.27 434.9 1741.55 434.9H1754.71ZM1562.35 415.7C1564.91 415.7 1566.19 416.436 1566.19 417.908V437.396C1567.85 436.117 1569.77 435.157 1571.95 434.517C1574.19 433.813 1576.62 433.46 1579.25 433.46C1585.97 433.46 1591.12 434.772 1594.7 437.396C1598.29 439.956 1600.08 443.701 1600.08 448.629V490.772C1600.08 492.244 1598.8 492.98 1596.24 492.98C1593.68 492.98 1592.4 492.244 1592.4 490.772V447.668C1592.4 445.236 1591.28 443.381 1589.04 442.101C1586.8 440.821 1583.53 440.181 1579.25 440.181C1575.09 440.181 1571.85 440.789 1569.55 442.005C1567.31 443.221 1566.19 444.98 1566.19 447.284V490.772C1566.19 492.244 1564.91 492.98 1562.35 492.98C1559.79 492.98 1558.51 492.244 1558.51 490.772V417.908C1558.51 416.436 1559.79 415.7 1562.35 415.7ZM1664.61 421.46C1667.68 421.46 1670.02 421.685 1671.62 422.133C1673.28 422.517 1674.5 423.381 1675.26 424.725C1676.1 426.005 1676.83 427.989 1677.47 430.677L1687.17 470.517L1696.87 430.677C1697.51 427.989 1698.21 426.005 1698.98 424.725C1699.81 423.381 1701.03 422.517 1702.62 422.133C1704.29 421.685 1706.66 421.46 1709.73 421.46H1711.84C1714.21 421.46 1715.75 421.94 1716.45 422.9C1717.22 423.796 1717.6 425.717 1717.6 428.66V490.772C1717.6 492.244 1716.32 492.98 1713.76 492.98C1711.2 492.98 1709.92 492.244 1709.92 490.772V428.181C1708.32 428.181 1707.1 428.308 1706.27 428.564C1705.5 428.756 1704.93 429.204 1704.54 429.908C1704.22 430.612 1703.87 431.764 1703.49 433.364L1690.91 483.188C1690.53 484.66 1689.28 485.396 1687.17 485.396C1685.06 485.396 1683.81 484.66 1683.42 483.188L1670.85 433.364C1670.46 431.764 1670.08 430.612 1669.7 429.908C1669.38 429.14 1668.83 428.661 1668.06 428.469C1667.3 428.277 1666.08 428.181 1664.42 428.181V490.772C1664.42 492.244 1663.14 492.98 1660.58 492.98C1658.02 492.98 1656.74 492.244 1656.74 490.772V428.372C1656.74 425.556 1657.12 423.701 1657.89 422.805C1658.66 421.909 1660.19 421.46 1662.5 421.46H1664.61ZM1817.25 433.46C1823.97 433.46 1829.13 434.772 1832.71 437.396C1836.29 439.956 1838.09 443.701 1838.09 448.629V490.772C1838.09 492.244 1836.81 492.98 1834.25 492.98C1831.69 492.98 1830.41 492.244 1830.41 490.772V447.668C1830.41 445.236 1829.29 443.381 1827.05 442.101C1824.81 440.821 1821.54 440.181 1817.25 440.181C1808.55 440.181 1804.2 442.676 1804.2 447.668V490.772C1804.2 492.244 1802.92 492.98 1800.36 492.98C1797.8 492.98 1796.52 492.244 1796.52 490.772V448.629C1796.52 443.701 1798.28 439.956 1801.8 437.396C1805.38 434.772 1810.53 433.46 1817.25 433.46ZM2045.72 415.7C2048.28 415.7 2049.56 416.436 2049.56 417.908V437.396C2051.23 436.117 2053.15 435.157 2055.32 434.517C2057.56 433.813 2060 433.46 2062.62 433.46C2069.34 433.46 2074.49 434.772 2078.08 437.396C2081.66 439.956 2083.45 443.701 2083.45 448.629V490.772C2083.45 492.244 2082.17 492.98 2079.61 492.98C2077.05 492.98 2075.77 492.244 2075.77 490.772V447.668C2075.77 445.236 2074.65 443.381 2072.41 442.101C2070.17 440.821 2066.91 440.181 2062.62 440.181C2058.46 440.181 2055.23 440.789 2052.92 442.005C2050.68 443.221 2049.56 444.98 2049.56 447.284V490.772C2049.56 492.244 2048.28 492.98 2045.72 492.98C2043.16 492.98 2041.88 492.244 2041.88 490.772V417.908C2041.88 416.436 2043.16 415.7 2045.72 415.7ZM1197.92 440.181C1189.22 440.181 1184.86 442.676 1184.86 447.668V479.732C1184.86 482.164 1185.98 484.021 1188.22 485.301C1190.46 486.581 1193.73 487.221 1198.01 487.221C1206.72 487.221 1211.07 484.724 1211.07 479.732V447.668C1211.07 445.236 1209.95 443.381 1207.71 442.101C1205.47 440.821 1202.21 440.181 1197.92 440.181ZM1320.55 440.181C1316.26 440.181 1312.96 440.821 1310.66 442.101C1308.42 443.381 1307.3 445.236 1307.3 447.668V461.589L1325.35 459.765C1328.87 459.445 1331.17 458.74 1332.26 457.652C1333.41 456.5 1333.99 454.388 1333.99 451.316V447.668C1333.99 445.236 1332.84 443.381 1330.53 442.101C1328.23 440.821 1324.9 440.181 1320.55 440.181ZM1940.89 440.181C1936.6 440.181 1933.31 440.821 1931 442.101C1928.76 443.381 1927.64 445.236 1927.64 447.668V461.589L1945.69 459.765C1949.21 459.445 1951.52 458.74 1952.6 457.652C1953.76 456.5 1954.33 454.388 1954.33 451.316V447.668C1954.33 445.236 1953.18 443.381 1950.88 442.101C1948.57 440.821 1945.24 440.181 1940.89 440.181ZM1069.5 417.214C1070.33 417.214 1071 417.886 1071 418.714V444.19C1071 445.019 1070.33 445.69 1069.5 445.69C1068.67 445.69 1068 445.019 1068 444.19V418.714C1068 417.886 1068.67 417.214 1069.5 417.214ZM2129.33 417.214C2130.16 417.214 2130.83 417.886 2130.83 418.714V444.19C2130.83 445.019 2130.16 445.69 2129.33 445.69C2128.5 445.69 2127.83 445.019 2127.83 444.19V418.714C2127.83 417.886 2128.5 417.214 2129.33 417.214ZM1495.57 413.78C1498.39 413.78 1499.8 414.581 1499.8 416.181V424.532C1499.8 426.132 1498.42 426.933 1495.67 426.933C1492.85 426.933 1491.45 426.132 1491.45 424.532V416.181C1491.45 414.581 1492.82 413.78 1495.57 413.78ZM1080.54 379C1081.37 379 1082.04 379.672 1082.04 380.5C1082.04 381.328 1081.37 382 1080.54 382H1071V393.238C1071 394.067 1070.33 394.738 1069.5 394.738C1068.67 394.738 1068 394.067 1068 393.238V380.5C1068 379.672 1068.67 379 1069.5 379H1080.54ZM2129.33 379C2130.16 379 2130.83 379.672 2130.83 380.5V393.238C2130.83 394.067 2130.16 394.738 2129.33 394.738C2128.5 394.738 2127.83 394.067 2127.83 393.238V382H2118.29C2117.46 382 2116.79 381.328 2116.79 380.5C2116.79 379.672 2117.46 379 2118.29 379H2129.33ZM1124.7 379C1125.53 379 1126.2 379.672 1126.2 380.5C1126.2 381.328 1125.53 382 1124.7 382H1102.62C1101.79 382 1101.12 381.328 1101.12 380.5C1101.12 379.672 1101.79 379 1102.62 379H1124.7ZM1168.86 379C1169.69 379 1170.36 379.672 1170.36 380.5C1170.36 381.328 1169.69 382 1168.86 382H1146.78C1145.95 382 1145.28 381.328 1145.28 380.5C1145.28 379.672 1145.95 379 1146.78 379H1168.86ZM1213.02 379C1213.85 379 1214.52 379.672 1214.52 380.5C1214.52 381.328 1213.85 382 1213.02 382H1190.94C1190.11 382 1189.44 381.328 1189.44 380.5C1189.44 379.672 1190.11 379 1190.94 379H1213.02ZM1257.18 379C1258.01 379 1258.68 379.672 1258.68 380.5C1258.68 381.328 1258.01 382 1257.18 382H1235.1C1234.27 382 1233.6 381.328 1233.6 380.5C1233.6 379.672 1234.27 379 1235.1 379H1257.18ZM1301.34 379C1302.17 379 1302.84 379.672 1302.84 380.5C1302.84 381.328 1302.17 382 1301.34 382H1279.26C1278.43 382 1277.76 381.328 1277.76 380.5C1277.76 379.672 1278.43 379 1279.26 379H1301.34ZM1345.5 379C1346.33 379 1347 379.672 1347 380.5C1347 381.328 1346.33 382 1345.5 382H1323.42C1322.59 382 1321.92 381.328 1321.92 380.5C1321.92 379.672 1322.59 379 1323.42 379H1345.5ZM1389.66 379C1390.49 379 1391.16 379.672 1391.16 380.5C1391.16 381.328 1390.49 382 1389.66 382H1367.58C1366.75 382 1366.08 381.328 1366.08 380.5C1366.08 379.672 1366.75 379 1367.58 379H1389.66ZM1433.82 379C1434.64 379 1435.32 379.672 1435.32 380.5C1435.32 381.328 1434.64 382 1433.82 382H1411.74C1410.91 382 1410.24 381.328 1410.24 380.5C1410.24 379.672 1410.91 379 1411.74 379H1433.82ZM1477.98 379C1478.8 379 1479.48 379.672 1479.48 380.5C1479.48 381.328 1478.8 382 1477.98 382H1455.9C1455.07 382 1454.4 381.328 1454.4 380.5C1454.4 379.672 1455.07 379 1455.9 379H1477.98ZM1522.14 379C1522.96 379 1523.64 379.672 1523.64 380.5C1523.64 381.328 1522.96 382 1522.14 382H1500.06C1499.23 382 1498.56 381.328 1498.56 380.5C1498.56 379.672 1499.23 379 1500.06 379H1522.14ZM1566.3 379C1567.12 379 1567.8 379.672 1567.8 380.5C1567.8 381.328 1567.12 382 1566.3 382H1544.22C1543.39 382 1542.72 381.328 1542.72 380.5C1542.72 379.672 1543.39 379 1544.22 379H1566.3ZM1610.46 379C1611.28 379 1611.95 379.672 1611.96 380.5C1611.96 381.328 1611.28 382 1610.46 382H1588.38C1587.55 382 1586.88 381.328 1586.88 380.5C1586.88 379.672 1587.55 379 1588.38 379H1610.46ZM1654.62 379C1655.44 379 1656.11 379.672 1656.12 380.5C1656.12 381.328 1655.44 382 1654.62 382H1632.54C1631.71 382 1631.04 381.328 1631.04 380.5C1631.04 379.672 1631.71 379 1632.54 379H1654.62ZM1698.77 379C1699.6 379 1700.27 379.672 1700.27 380.5C1700.27 381.328 1699.6 382 1698.77 382H1676.7C1675.87 382 1675.2 381.328 1675.2 380.5C1675.2 379.672 1675.87 379 1676.7 379H1698.77ZM1742.93 379C1743.76 379 1744.43 379.672 1744.43 380.5C1744.43 381.328 1743.76 382 1742.93 382H1720.85C1720.03 382 1719.35 381.328 1719.35 380.5C1719.35 379.672 1720.03 379 1720.85 379H1742.93ZM1787.09 379C1787.92 379 1788.59 379.672 1788.59 380.5C1788.59 381.328 1787.92 382 1787.09 382H1765.01C1764.19 382 1763.51 381.328 1763.51 380.5C1763.51 379.672 1764.19 379 1765.01 379H1787.09ZM1831.25 379C1832.08 379 1832.75 379.672 1832.75 380.5C1832.75 381.328 1832.08 382 1831.25 382H1809.17C1808.35 382 1807.67 381.328 1807.67 380.5C1807.67 379.672 1808.35 379 1809.17 379H1831.25ZM1875.41 379C1876.24 379 1876.91 379.672 1876.91 380.5C1876.91 381.328 1876.24 382 1875.41 382H1853.33C1852.5 382 1851.83 381.328 1851.83 380.5C1851.83 379.672 1852.5 379 1853.33 379H1875.41ZM1919.57 379C1920.4 379 1921.07 379.672 1921.07 380.5C1921.07 381.328 1920.4 382 1919.57 382H1897.49C1896.66 382 1895.99 381.328 1895.99 380.5C1895.99 379.672 1896.66 379 1897.49 379H1919.57ZM1963.73 379C1964.56 379 1965.23 379.672 1965.23 380.5C1965.23 381.328 1964.56 382 1963.73 382H1941.65C1940.82 382 1940.15 381.328 1940.15 380.5C1940.15 379.672 1940.82 379 1941.65 379H1963.73ZM2007.89 379C2008.72 379 2009.39 379.672 2009.39 380.5C2009.39 381.328 2008.72 382 2007.89 382H1985.81C1984.98 382 1984.31 381.328 1984.31 380.5C1984.31 379.672 1984.98 379 1985.81 379H2007.89ZM2052.05 379C2052.88 379 2053.55 379.672 2053.55 380.5C2053.55 381.328 2052.88 382 2052.05 382H2029.97C2029.14 382 2028.47 381.328 2028.47 380.5C2028.47 379.672 2029.14 379 2029.97 379H2052.05ZM2096.21 379C2097.04 379 2097.71 379.672 2097.71 380.5C2097.71 381.328 2097.04 382 2096.21 382H2074.13C2073.3 382 2072.63 381.328 2072.63 380.5C2072.63 379.672 2073.3 379 2074.13 379H2096.21Z" fill="white"/>
<path d="M1451.94 634.951C1453.38 634.951 1454.74 634.607 1456.02 633.92C1456.45 633.67 1456.86 633.545 1457.24 633.545C1457.61 633.514 1457.94 633.67 1458.22 634.014C1458.5 634.357 1458.64 634.764 1458.64 635.232C1458.64 635.67 1458.34 636.076 1457.75 636.451C1455.94 637.639 1453.91 638.232 1451.66 638.232C1448.81 638.232 1446.41 637.342 1444.44 635.561C1442.38 633.654 1441.36 631.154 1441.39 628.061C1441.39 624.967 1442.41 622.467 1444.44 620.561C1446.38 618.748 1448.78 617.857 1451.66 617.889C1453.19 617.889 1454.44 618.092 1455.41 618.498C1456.41 618.873 1457.19 619.264 1457.75 619.67C1458.34 620.045 1458.64 620.467 1458.64 620.936C1458.64 621.404 1458.5 621.795 1458.22 622.107C1457.94 622.42 1457.66 622.576 1457.38 622.576C1456.94 622.576 1456.49 622.451 1456.02 622.201C1454.7 621.482 1453.34 621.139 1451.94 621.17C1449.69 621.17 1447.94 621.811 1446.69 623.092C1445.47 624.342 1444.86 625.998 1444.86 628.061C1444.86 630.123 1445.47 631.795 1446.69 633.076C1447.94 634.326 1449.69 634.951 1451.94 634.951ZM1471.81 617.889C1474.78 617.889 1477.17 618.826 1478.99 620.701C1480.8 622.607 1481.67 625.061 1481.61 628.061C1481.61 631.092 1480.74 633.545 1478.99 635.42C1477.17 637.295 1474.78 638.232 1471.81 638.232C1468.81 638.232 1466.44 637.295 1464.69 635.42C1462.88 633.545 1461.97 631.092 1461.97 628.061C1461.97 624.998 1462.88 622.545 1464.69 620.701C1466.44 618.826 1468.81 617.889 1471.81 617.889ZM1467.5 633.498C1468.13 634.029 1468.81 634.42 1469.56 634.67C1470.34 634.92 1471.09 635.045 1471.81 635.045C1472.53 635.045 1473.27 634.92 1474.02 634.67C1474.77 634.42 1475.45 634.014 1476.08 633.451C1477.45 632.201 1478.14 630.389 1478.14 628.014C1478.14 625.701 1477.45 623.904 1476.08 622.623C1474.92 621.561 1473.5 621.045 1471.81 621.076C1469.03 621.076 1467.11 622.326 1466.05 624.826C1465.67 625.732 1465.49 626.811 1465.49 628.061C1465.49 629.311 1465.67 630.389 1466.05 631.295C1466.42 632.201 1466.91 632.936 1467.5 633.498ZM1501.16 635.326C1499.25 637.264 1497.06 638.232 1494.59 638.232C1492.16 638.232 1490.03 637.373 1488.22 635.654C1486.28 633.717 1485.3 631.186 1485.27 628.061C1485.27 624.998 1486.25 622.482 1488.22 620.514C1490 618.732 1492.13 617.857 1494.59 617.889C1497.06 617.889 1499.25 618.857 1501.16 620.795V611.373C1501.16 610.873 1501.31 610.467 1501.63 610.154C1501.97 609.811 1502.39 609.639 1502.89 609.639C1503.39 609.639 1503.8 609.811 1504.11 610.154C1504.45 610.467 1504.63 610.873 1504.63 611.373V636.311C1504.63 636.779 1504.45 637.186 1504.11 637.529C1503.8 637.873 1503.39 638.045 1502.89 638.045C1502.39 638.045 1501.97 637.873 1501.63 637.529C1501.31 637.186 1501.16 636.779 1501.16 636.311V635.326ZM1501.16 624.029C1499.41 622.092 1497.38 621.139 1495.06 621.17C1492.13 621.17 1490.2 622.467 1489.3 625.061C1488.99 625.936 1488.81 626.936 1488.78 628.061C1488.78 630.248 1489.38 631.982 1490.56 633.264C1491.66 634.42 1493.16 634.982 1495.06 634.951C1497.38 634.951 1499.41 633.998 1501.16 632.092V624.029ZM1513.02 629.326C1513.24 631.045 1513.89 632.42 1514.99 633.451C1516.11 634.451 1517.64 634.951 1519.58 634.951C1521.55 634.951 1523.22 634.639 1524.59 634.014C1525.03 633.795 1525.42 633.686 1525.77 633.686C1526.11 633.654 1526.42 633.779 1526.7 634.061C1527.02 634.342 1527.17 634.654 1527.17 634.998C1527.17 635.686 1526.89 636.17 1526.33 636.451C1525.8 636.732 1525.31 636.982 1524.88 637.201C1524.44 637.42 1523.97 637.607 1523.47 637.764C1522.31 638.076 1520.97 638.232 1519.44 638.232C1516.28 638.232 1513.83 637.357 1512.08 635.607C1510.36 633.826 1509.5 631.311 1509.5 628.061C1509.5 625.248 1510.24 622.904 1511.7 621.029C1513.36 618.936 1515.69 617.889 1518.69 617.889C1521.56 617.889 1523.83 618.857 1525.49 620.795C1527.05 622.607 1527.83 624.873 1527.83 627.592C1527.83 628.061 1527.66 628.467 1527.31 628.811C1527 629.154 1526.59 629.326 1526.09 629.326H1513.02ZM1518.69 620.842C1516.41 620.842 1514.75 621.857 1513.72 623.889C1513.34 624.607 1513.11 625.467 1513.02 626.467H1524.36C1524.27 624.654 1523.59 623.217 1522.34 622.154C1521.34 621.279 1520.13 620.842 1518.69 620.842ZM1555.39 619.107C1555.58 618.42 1556.13 618.076 1557.03 618.076C1557.47 618.076 1557.84 618.248 1558.16 618.592C1558.5 618.904 1558.67 619.248 1558.67 619.623C1558.67 619.967 1558.64 620.248 1558.58 620.467L1553.14 636.451C1552.99 636.889 1552.7 637.264 1552.3 637.576C1551.89 637.889 1551.42 638.045 1550.89 638.045C1550.39 638.045 1549.92 637.889 1549.49 637.576C1549.08 637.264 1548.8 636.873 1548.64 636.404L1544.56 623.701L1540.49 636.404C1540.3 636.842 1540 637.232 1539.59 637.576C1539.19 637.889 1538.72 638.045 1538.19 638.045C1537.69 638.045 1537.24 637.889 1536.83 637.576C1536.42 637.264 1536.14 636.889 1535.99 636.451L1530.55 620.467C1530.49 620.248 1530.45 619.967 1530.45 619.623C1530.45 619.248 1530.61 618.904 1530.92 618.592C1531.27 618.248 1531.66 618.076 1532.09 618.076C1533 618.076 1533.55 618.42 1533.74 619.107L1538.19 633.92L1542.69 619.482C1542.81 619.076 1543.05 618.748 1543.39 618.498C1543.74 618.217 1544.13 618.076 1544.56 618.076C1545 618.076 1545.39 618.201 1545.74 618.451C1546.08 618.701 1546.31 619.045 1546.44 619.482L1550.89 633.92L1555.39 619.107ZM1562.75 619.857C1562.75 619.326 1562.92 618.904 1563.27 618.592C1563.61 618.248 1564.03 618.076 1564.53 618.076C1565.03 618.076 1565.44 618.248 1565.75 618.592C1566.06 618.904 1566.22 619.326 1566.22 619.857V636.311C1566.22 636.779 1566.06 637.186 1565.75 637.529C1565.44 637.873 1565.03 638.045 1564.53 638.045C1564.03 638.045 1563.61 637.873 1563.27 637.529C1562.92 637.186 1562.75 636.779 1562.75 636.311V619.857ZM1566.59 612.311C1566.59 612.873 1566.41 613.342 1566.03 613.717C1565.66 614.092 1565.19 614.279 1564.63 614.279H1564.39C1563.83 614.279 1563.36 614.092 1562.99 613.717C1562.64 613.342 1562.47 612.873 1562.47 612.311V612.17C1562.47 611.607 1562.66 611.139 1563.03 610.764C1563.41 610.389 1563.86 610.201 1564.39 610.201H1564.63C1565.19 610.201 1565.66 610.389 1566.03 610.764C1566.41 611.139 1566.59 611.607 1566.59 612.17V612.311ZM1579.58 635.139C1580.27 635.139 1580.75 635.092 1581.03 634.998C1581.34 634.873 1581.67 634.811 1582.02 634.811C1582.36 634.811 1582.67 634.951 1582.95 635.232C1583.24 635.482 1583.38 635.873 1583.38 636.404C1583.38 636.904 1583.13 637.264 1582.63 637.482C1581.53 637.982 1580.59 638.232 1579.81 638.232C1579.03 638.232 1578.31 638.186 1577.66 638.092C1577.03 638.029 1576.42 637.826 1575.83 637.482C1574.42 636.67 1573.72 635.232 1573.72 633.17V621.264H1571C1570.53 621.264 1570.28 621.014 1570.25 620.514C1570.25 620.295 1570.38 620.092 1570.63 619.904L1575.83 614.795C1576.05 614.576 1576.27 614.467 1576.49 614.467C1576.7 614.436 1576.88 614.498 1577 614.654C1577.13 614.811 1577.19 614.998 1577.19 615.217V618.264H1581.55C1581.99 618.264 1582.34 618.404 1582.63 618.686C1582.91 618.967 1583.05 619.326 1583.05 619.764C1583.05 620.201 1582.91 620.561 1582.63 620.842C1582.34 621.123 1581.99 621.264 1581.55 621.264H1577.19V632.889C1577.19 633.857 1577.49 634.514 1578.08 634.857C1578.39 635.045 1578.89 635.139 1579.58 635.139ZM1596.97 621.123C1594.72 621.123 1592.61 622.357 1590.64 624.826V636.311C1590.64 636.779 1590.47 637.186 1590.13 637.529C1589.78 637.873 1589.38 638.045 1588.91 638.045C1588.44 638.045 1588.03 637.873 1587.69 637.529C1587.34 637.186 1587.17 636.779 1587.17 636.311V611.373C1587.17 610.873 1587.33 610.467 1587.64 610.154C1587.99 609.811 1588.41 609.639 1588.91 609.639C1589.38 609.639 1589.78 609.811 1590.13 610.154C1590.47 610.467 1590.64 610.873 1590.64 611.373V621.451C1591.67 620.389 1592.56 619.623 1593.31 619.154C1594.75 618.311 1596.13 617.889 1597.44 617.889C1598.78 617.889 1599.88 618.092 1600.72 618.498C1601.56 618.873 1602.28 619.42 1602.88 620.139C1604.06 621.545 1604.66 623.295 1604.66 625.389V636.311C1604.66 636.779 1604.49 637.186 1604.14 637.529C1603.8 637.873 1603.39 638.045 1602.92 638.045C1602.45 638.045 1602.05 637.873 1601.7 637.529C1601.36 637.186 1601.19 636.779 1601.19 636.311V625.764C1601.19 624.326 1600.86 623.201 1600.2 622.389C1599.55 621.545 1598.47 621.123 1596.97 621.123ZM1613.99 621.451C1615.55 619.107 1617.72 617.92 1620.5 617.889C1621.88 617.889 1623.14 618.295 1624.3 619.107C1625.24 619.764 1625.94 620.67 1626.41 621.826C1627.13 620.701 1627.83 619.92 1628.52 619.482C1629.95 618.42 1631.59 617.889 1633.44 617.889C1635.5 617.889 1637.13 618.686 1638.31 620.279C1639.34 621.623 1639.86 623.279 1639.86 625.248V636.311C1639.86 636.779 1639.69 637.186 1639.34 637.529C1639.03 637.873 1638.63 638.045 1638.13 638.045C1637.66 638.045 1637.25 637.873 1636.91 637.529C1636.56 637.186 1636.39 636.779 1636.39 636.311V625.951C1636.39 624.326 1636.09 623.123 1635.5 622.342C1634.94 621.529 1633.94 621.123 1632.5 621.123C1630.25 621.123 1628.39 622.357 1626.92 624.826V636.311C1626.92 636.779 1626.75 637.186 1626.41 637.529C1626.09 637.873 1625.69 638.045 1625.19 638.045C1624.72 638.045 1624.31 637.873 1623.97 637.529C1623.63 637.186 1623.45 636.779 1623.45 636.311V625.951C1623.45 624.326 1623.16 623.123 1622.56 622.342C1622 621.529 1621 621.123 1619.56 621.123C1617.31 621.123 1615.45 622.357 1613.99 624.826V636.311C1613.99 636.779 1613.81 637.186 1613.47 637.529C1613.13 637.873 1612.72 638.045 1612.25 638.045C1611.78 638.045 1611.38 637.873 1611.03 637.529C1610.69 637.186 1610.52 636.779 1610.52 636.311V619.857C1610.52 619.389 1610.67 618.982 1610.99 618.639C1611.33 618.264 1611.75 618.076 1612.25 618.076C1612.72 618.076 1613.13 618.248 1613.47 618.592C1613.81 618.936 1613.99 619.357 1613.99 619.857V621.451ZM1646.47 619.248C1648.63 618.311 1650.86 617.857 1653.17 617.889C1655.77 617.889 1657.78 618.686 1659.22 620.279C1660.5 621.654 1661.16 623.373 1661.19 625.436V636.311C1661.19 636.779 1661 637.186 1660.63 637.529C1660.28 637.873 1659.86 638.045 1659.36 638.045C1658.89 638.045 1658.49 637.873 1658.14 637.529C1657.8 637.186 1657.63 636.779 1657.63 636.311V635.326C1656.94 636.045 1656.02 636.717 1654.86 637.342C1653.7 637.936 1652.24 638.232 1650.45 638.232C1648.67 638.232 1647.19 637.717 1646 636.686C1644.78 635.623 1644.17 634.232 1644.17 632.514C1644.17 630.607 1644.89 629.107 1646.33 628.014C1647.89 626.826 1650.11 626.248 1652.99 626.279H1657.63V625.951C1657.63 624.232 1657.2 623.014 1656.36 622.295C1655.55 621.576 1654.27 621.217 1652.52 621.217C1651.05 621.217 1649.34 621.514 1647.41 622.107C1647.22 622.17 1646.99 622.201 1646.7 622.201C1646.45 622.201 1646.19 622.076 1645.91 621.826C1645.63 621.545 1645.47 621.123 1645.44 620.561C1645.44 619.967 1645.78 619.529 1646.47 619.248ZM1647.69 632.092C1647.69 634.154 1649.05 635.17 1651.77 635.139C1652.95 635.139 1654.06 634.857 1655.09 634.295C1656.16 633.701 1657 633.045 1657.63 632.326V629.092H1653.5C1651.69 629.092 1650.27 629.326 1649.24 629.795C1648.2 630.232 1647.69 630.998 1647.69 632.092ZM1676.84 621.123C1674.59 621.123 1672.49 622.357 1670.52 624.826V636.311C1670.52 636.779 1670.34 637.186 1670 637.529C1669.66 637.873 1669.25 638.045 1668.78 638.045C1668.31 638.045 1667.91 637.873 1667.56 637.529C1667.22 637.186 1667.05 636.779 1667.05 636.311V619.857C1667.05 619.357 1667.2 618.936 1667.52 618.592C1667.86 618.248 1668.28 618.076 1668.78 618.076C1669.25 618.076 1669.66 618.248 1670 618.592C1670.34 618.904 1670.52 619.326 1670.52 619.857V621.451C1671.55 620.389 1672.44 619.623 1673.19 619.154C1674.63 618.311 1676 617.889 1677.31 617.889C1678.66 617.889 1679.75 618.092 1680.59 618.498C1681.44 618.873 1682.16 619.42 1682.75 620.139C1683.94 621.545 1684.53 623.295 1684.53 625.389V636.311C1684.53 636.779 1684.36 637.186 1684.02 637.529C1683.67 637.873 1683.27 638.045 1682.8 638.045C1682.33 638.045 1681.92 637.873 1681.58 637.529C1681.24 637.186 1681.06 636.779 1681.06 636.311V625.764C1681.06 624.326 1680.74 623.201 1680.08 622.389C1679.42 621.545 1678.34 621.123 1676.84 621.123ZM1705.06 620.795V619.857C1705.06 619.389 1705.22 618.982 1705.53 618.639C1705.88 618.264 1706.28 618.076 1706.75 618.076C1707.22 618.076 1707.63 618.248 1707.97 618.592C1708.34 618.936 1708.53 619.357 1708.53 619.857V637.014C1708.53 640.264 1707.75 642.748 1706.19 644.467C1704.63 646.217 1702.41 647.092 1699.53 647.092C1696.47 647.092 1693.72 646.42 1691.28 645.076C1690.84 644.795 1690.63 644.404 1690.63 643.904C1690.63 643.404 1690.77 642.982 1691.05 642.639C1691.36 642.326 1691.67 642.17 1691.99 642.17C1692.3 642.17 1692.58 642.217 1692.83 642.311C1694.77 643.279 1696.88 643.764 1699.16 643.764C1703.09 643.764 1705.06 641.686 1705.06 637.529V634.951C1703.25 636.889 1701.06 637.857 1698.5 637.857C1696.06 637.857 1693.97 637.029 1692.22 635.373C1690.19 633.498 1689.17 630.998 1689.17 627.873C1689.17 624.717 1690.19 622.201 1692.22 620.326C1693.97 618.67 1696.09 617.857 1698.59 617.889C1701.09 617.889 1703.25 618.857 1705.06 620.795ZM1705.06 623.889C1704.34 623.139 1703.52 622.482 1702.58 621.92C1701.67 621.357 1700.66 621.076 1699.53 621.076C1698.41 621.076 1697.44 621.217 1696.63 621.498C1695.84 621.779 1695.16 622.201 1694.56 622.764C1693.31 623.951 1692.69 625.654 1692.69 627.873C1692.69 631.186 1694 633.311 1696.63 634.248C1697.44 634.529 1698.41 634.67 1699.53 634.67C1701.41 634.67 1703.25 633.717 1705.06 631.811V623.889ZM1716.92 629.326C1717.14 631.045 1717.8 632.42 1718.89 633.451C1720.02 634.451 1721.55 634.951 1723.49 634.951C1725.45 634.951 1727.13 634.639 1728.5 634.014C1728.94 633.795 1729.33 633.686 1729.67 633.686C1730.02 633.654 1730.33 633.779 1730.61 634.061C1730.92 634.342 1731.08 634.654 1731.08 634.998C1731.08 635.686 1730.8 636.17 1730.24 636.451C1729.7 636.732 1729.22 636.982 1728.78 637.201C1728.34 637.42 1727.88 637.607 1727.38 637.764C1726.22 638.076 1724.88 638.232 1723.34 638.232C1720.19 638.232 1717.74 637.357 1715.99 635.607C1714.27 633.826 1713.41 631.311 1713.41 628.061C1713.41 625.248 1714.14 622.904 1715.61 621.029C1717.27 618.936 1719.59 617.889 1722.59 617.889C1725.47 617.889 1727.74 618.857 1729.39 620.795C1730.95 622.607 1731.74 624.873 1731.74 627.592C1731.74 628.061 1731.56 628.467 1731.22 628.811C1730.91 629.154 1730.5 629.326 1730 629.326H1716.92ZM1722.59 620.842C1720.31 620.842 1718.66 621.857 1717.63 623.889C1717.25 624.607 1717.02 625.467 1716.92 626.467H1728.27C1728.17 624.654 1727.5 623.217 1726.25 622.154C1725.25 621.279 1724.03 620.842 1722.59 620.842ZM1742.66 634.998C1745.5 634.998 1746.91 634.107 1746.88 632.326C1746.88 631.764 1746.59 631.326 1746.03 631.014C1745.47 630.701 1744.77 630.436 1743.92 630.217C1743.08 629.998 1742.16 629.764 1741.16 629.514C1740.16 629.264 1739.22 628.92 1738.34 628.482C1737.47 628.045 1736.75 627.482 1736.19 626.795C1735.63 626.076 1735.34 625.201 1735.34 624.17C1735.34 623.139 1735.5 622.264 1735.81 621.545C1736.13 620.795 1736.59 620.154 1737.22 619.623C1738.56 618.467 1740.44 617.889 1742.84 617.889C1744.78 617.889 1746.64 618.201 1748.42 618.826C1748.77 618.951 1749.03 619.17 1749.22 619.482C1749.44 619.764 1749.55 620.076 1749.55 620.42C1749.55 620.732 1749.39 621.045 1749.08 621.357C1748.8 621.67 1748.52 621.826 1748.24 621.826C1747.95 621.826 1747.61 621.764 1747.2 621.639C1745.99 621.264 1744.64 621.076 1743.17 621.076C1741.7 621.076 1740.59 621.326 1739.84 621.826C1739.09 622.326 1738.72 622.951 1738.72 623.701C1738.72 624.42 1739 624.951 1739.56 625.295C1740.13 625.607 1740.83 625.889 1741.67 626.139C1742.55 626.389 1743.49 626.623 1744.49 626.842C1745.52 627.061 1746.45 627.389 1747.3 627.826C1749.3 628.857 1750.3 630.436 1750.3 632.561C1750.3 634.217 1749.67 635.545 1748.42 636.545C1747.11 637.67 1745.25 638.232 1742.84 638.232C1740.28 638.232 1737.97 637.654 1735.91 636.498C1735.47 636.186 1735.24 635.811 1735.2 635.373C1735.2 634.904 1735.34 634.514 1735.63 634.201C1735.94 633.857 1736.25 633.686 1736.56 633.686C1736.88 633.686 1737.28 633.795 1737.78 634.014C1739.25 634.67 1740.88 634.998 1742.66 634.998ZM1764.59 621.123C1762.34 621.123 1760.24 622.357 1758.27 624.826V636.311C1758.27 636.779 1758.09 637.186 1757.75 637.529C1757.41 637.873 1757 638.045 1756.53 638.045C1756.06 638.045 1755.66 637.873 1755.31 637.529C1754.97 637.186 1754.8 636.779 1754.8 636.311V611.373C1754.8 610.873 1754.95 610.467 1755.27 610.154C1755.61 609.811 1756.03 609.639 1756.53 609.639C1757 609.639 1757.41 609.811 1757.75 610.154C1758.09 610.467 1758.27 610.873 1758.27 611.373V621.451C1759.3 620.389 1760.19 619.623 1760.94 619.154C1762.38 618.311 1763.75 617.889 1765.06 617.889C1766.41 617.889 1767.5 618.092 1768.34 618.498C1769.19 618.873 1769.91 619.42 1770.5 620.139C1771.69 621.545 1772.28 623.295 1772.28 625.389V636.311C1772.28 636.779 1772.11 637.186 1771.77 637.529C1771.42 637.873 1771.02 638.045 1770.55 638.045C1770.08 638.045 1769.67 637.873 1769.33 637.529C1768.99 637.186 1768.81 636.779 1768.81 636.311V625.764C1768.81 624.326 1768.49 623.201 1767.83 622.389C1767.17 621.545 1766.09 621.123 1764.59 621.123ZM1780.25 633.451C1780.88 633.451 1781.39 633.67 1781.8 634.107C1782.24 634.514 1782.45 635.014 1782.45 635.607V635.842C1782.45 636.436 1782.24 636.936 1781.8 637.342C1781.39 637.748 1780.88 637.951 1780.25 637.951H1779.88C1779.28 637.951 1778.78 637.748 1778.38 637.342C1777.97 636.904 1777.77 636.404 1777.77 635.842V635.607C1777.77 635.014 1777.97 634.514 1778.38 634.107C1778.78 633.67 1779.28 633.451 1779.88 633.451H1780.25ZM1788.22 619.857C1788.22 619.326 1788.39 618.904 1788.74 618.592C1789.08 618.248 1789.5 618.076 1790 618.076C1790.5 618.076 1790.91 618.248 1791.22 618.592C1791.53 618.904 1791.69 619.326 1791.69 619.857V636.311C1791.69 636.779 1791.53 637.186 1791.22 637.529C1790.91 637.873 1790.5 638.045 1790 638.045C1789.5 638.045 1789.08 637.873 1788.74 637.529C1788.39 637.186 1788.22 636.779 1788.22 636.311V619.857ZM1792.06 612.311C1792.06 612.873 1791.88 613.342 1791.5 613.717C1791.13 614.092 1790.66 614.279 1790.09 614.279H1789.86C1789.3 614.279 1788.83 614.092 1788.45 613.717C1788.11 613.342 1787.94 612.873 1787.94 612.311V612.17C1787.94 611.607 1788.13 611.139 1788.5 610.764C1788.88 610.389 1789.33 610.201 1789.86 610.201H1790.09C1790.66 610.201 1791.13 610.389 1791.5 610.764C1791.88 611.139 1792.06 611.607 1792.06 612.17V612.311ZM1807.72 621.123C1805.47 621.123 1803.36 622.357 1801.39 624.826V636.311C1801.39 636.779 1801.22 637.186 1800.88 637.529C1800.53 637.873 1800.13 638.045 1799.66 638.045C1799.19 638.045 1798.78 637.873 1798.44 637.529C1798.09 637.186 1797.92 636.779 1797.92 636.311V619.857C1797.92 619.357 1798.08 618.936 1798.39 618.592C1798.74 618.248 1799.16 618.076 1799.66 618.076C1800.13 618.076 1800.53 618.248 1800.88 618.592C1801.22 618.904 1801.39 619.326 1801.39 619.857V621.451C1802.42 620.389 1803.31 619.623 1804.06 619.154C1805.5 618.311 1806.88 617.889 1808.19 617.889C1809.53 617.889 1810.63 618.092 1811.47 618.498C1812.31 618.873 1813.03 619.42 1813.63 620.139C1814.81 621.545 1815.41 623.295 1815.41 625.389V636.311C1815.41 636.779 1815.24 637.186 1814.89 637.529C1814.55 637.873 1814.14 638.045 1813.67 638.045C1813.2 638.045 1812.8 637.873 1812.45 637.529C1812.11 637.186 1811.94 636.779 1811.94 636.311V625.764C1811.94 624.326 1811.61 623.201 1810.95 622.389C1810.3 621.545 1809.22 621.123 1807.72 621.123Z" fill="white"/>
<path d="M1177.92 573.857C1200.94 598.062 1219.84 615.263 1251.55 620.866C1271.45 624.383 1294.24 619.098 1313.71 614.242C1334.98 608.937 1354.26 605.733 1375.96 608.473C1379.03 608.86 1401.29 615.613 1399.66 616.592C1394.18 619.889 1383.35 623.857 1377 623.857C1371 623.857 1388.75 621.144 1394.58 619.584C1399.91 618.161 1405.88 620.374 1401.26 614.242C1396.55 607.999 1391.78 601.78 1387.81 595.011" stroke="white" stroke-width="5" stroke-linecap="round"/>
<path fill-rule="evenodd" clip-rule="evenodd" d="M555.881 809.044C556.709 809.017 557.402 809.667 557.429 810.495C557.455 811.323 556.805 812.015 555.978 812.042C552.204 812.164 548.415 812.225 544.612 812.225C540.81 812.225 537.021 812.164 533.248 812.042C532.42 812.015 531.771 811.323 531.797 810.495C531.824 809.667 532.517 809.017 533.345 809.044C537.086 809.164 540.842 809.225 544.612 809.225C548.383 809.225 552.14 809.164 555.881 809.044ZM486.891 805.923C487.025 805.105 487.796 804.551 488.613 804.685C495.972 805.891 503.41 806.863 510.918 807.594C511.742 807.674 512.346 808.408 512.266 809.232C512.185 810.057 511.451 810.66 510.627 810.58C503.053 809.843 495.551 808.862 488.128 807.646C487.311 807.512 486.757 806.74 486.891 805.923ZM600.612 804.685C601.43 804.551 602.201 805.105 602.335 805.923C602.469 806.74 601.915 807.511 601.098 807.646C593.674 808.862 586.171 809.843 578.598 810.58C577.773 810.66 577.04 810.057 576.96 809.232C576.88 808.408 577.483 807.674 578.308 807.594C585.816 806.863 593.254 805.891 600.612 804.685ZM442.962 795.515C443.202 794.722 444.04 794.274 444.833 794.514C451.976 796.678 459.218 798.616 466.55 800.319C467.357 800.507 467.858 801.313 467.671 802.12C467.483 802.927 466.678 803.429 465.871 803.241C458.475 801.523 451.169 799.569 443.963 797.386C443.17 797.146 442.722 796.307 442.962 795.515ZM644.393 794.514C645.185 794.274 646.022 794.722 646.263 795.515C646.503 796.307 646.055 797.144 645.263 797.385C638.057 799.568 630.751 801.523 623.354 803.241C622.548 803.428 621.741 802.927 621.554 802.12C621.366 801.313 621.869 800.507 622.676 800.319C630.007 798.616 637.249 796.678 644.393 794.514ZM686.461 778.673C687.215 778.33 688.105 778.665 688.447 779.419C688.789 780.173 688.455 781.062 687.701 781.404C680.832 784.522 673.844 787.421 666.744 790.095C665.969 790.387 665.104 789.995 664.812 789.22C664.52 788.445 664.912 787.58 665.687 787.288C672.724 784.638 679.652 781.763 686.461 778.673ZM400.778 779.419C401.121 778.665 402.009 778.331 402.764 778.673C409.573 781.763 416.5 784.638 423.538 787.288C424.313 787.58 424.705 788.444 424.413 789.22C424.121 789.995 423.257 790.387 422.481 790.095C415.382 787.421 408.393 784.522 401.524 781.404C400.77 781.062 400.436 780.173 400.778 779.419ZM361.075 757.932C361.513 757.229 362.439 757.013 363.142 757.451C369.494 761.41 375.986 765.167 382.607 768.714C383.337 769.105 383.612 770.014 383.221 770.744C382.829 771.474 381.921 771.75 381.19 771.358C374.511 767.781 367.963 763.991 361.555 759.998C360.852 759.56 360.637 758.635 361.075 757.932ZM726.084 757.451C726.787 757.013 727.712 757.229 728.15 757.932C728.588 758.635 728.373 759.56 727.67 759.998C721.262 763.991 714.713 767.781 708.034 771.358C707.304 771.749 706.395 771.474 706.004 770.744C705.613 770.014 705.888 769.105 706.618 768.714C713.239 765.168 719.731 761.41 726.084 757.451ZM324.513 731.446C325.039 730.806 325.984 730.714 326.624 731.239C332.412 735.995 338.359 740.565 344.454 744.94C345.127 745.424 345.281 746.361 344.798 747.034C344.315 747.707 343.378 747.861 342.705 747.378C336.557 742.964 330.558 738.354 324.72 733.558C324.08 733.032 323.987 732.086 324.513 731.446ZM762.601 731.239C763.241 730.713 764.186 730.806 764.712 731.446C765.238 732.086 765.145 733.032 764.505 733.558C758.667 738.354 752.669 742.964 746.521 747.378C745.848 747.861 744.91 747.707 744.427 747.034C743.944 746.361 744.098 745.424 744.771 744.94C750.866 740.565 756.812 735.995 762.601 731.239ZM291.7 700.435C292.305 699.868 293.254 699.898 293.82 700.503C298.947 705.974 304.25 711.278 309.722 716.404C310.326 716.971 310.357 717.921 309.791 718.525C309.225 719.13 308.275 719.16 307.671 718.594C302.152 713.423 296.802 708.074 291.631 702.555C291.065 701.95 291.096 701.001 291.7 700.435ZM795.404 700.503C795.971 699.898 796.921 699.868 797.525 700.435C798.13 701.001 798.16 701.95 797.594 702.555C792.423 708.073 787.073 713.423 781.555 718.594C780.95 719.16 780.001 719.129 779.435 718.525C778.868 717.921 778.899 716.972 779.503 716.405C784.974 711.279 790.278 705.974 795.404 700.503ZM263.191 665.427C263.864 664.944 264.801 665.098 265.284 665.771C269.66 671.866 274.23 677.813 278.985 683.601C279.511 684.241 279.419 685.186 278.779 685.712C278.139 686.238 277.194 686.145 276.668 685.505C271.871 679.667 267.261 673.669 262.848 667.521C262.365 666.848 262.519 665.91 263.191 665.427ZM823.94 665.771C824.424 665.098 825.361 664.944 826.034 665.427C826.707 665.91 826.861 666.848 826.378 667.521C821.964 673.669 817.354 679.667 812.558 685.505C812.032 686.145 811.086 686.238 810.446 685.712C809.806 685.186 809.714 684.241 810.239 683.601C814.995 677.813 819.565 671.866 823.94 665.771ZM239.48 627.004C240.211 626.613 241.121 626.888 241.512 627.618C245.058 634.239 248.815 640.731 252.773 647.084C253.211 647.787 252.997 648.712 252.294 649.15C251.591 649.588 250.666 649.373 250.228 648.67C246.234 642.262 242.445 635.713 238.867 629.034C238.476 628.304 238.751 627.395 239.48 627.004ZM847.714 627.618C848.105 626.888 849.014 626.613 849.744 627.004C850.474 627.395 850.749 628.304 850.358 629.034C846.781 635.713 842.991 642.262 838.998 648.67C838.56 649.373 837.635 649.588 836.932 649.15C836.229 648.712 836.014 647.787 836.451 647.084C840.41 640.731 844.167 634.239 847.714 627.618ZM221.005 585.812C221.78 585.52 222.645 585.911 222.938 586.687C225.588 593.724 228.463 600.652 231.553 607.461C231.895 608.215 231.561 609.105 230.807 609.447C230.052 609.789 229.163 609.455 228.82 608.701C225.703 601.832 222.803 594.844 220.13 587.744C219.838 586.969 220.23 586.104 221.005 585.812ZM866.288 586.687C866.58 585.912 867.445 585.52 868.22 585.812C868.995 586.104 869.387 586.969 869.095 587.744C866.421 594.844 863.522 601.832 860.404 608.701C860.062 609.455 859.173 609.789 858.419 609.447C857.665 609.105 857.331 608.215 857.673 607.461C860.763 600.652 863.638 593.724 866.288 586.687ZM208.105 542.554C208.912 542.366 209.718 542.869 209.905 543.676C211.608 551.007 213.547 558.249 215.711 565.393C215.951 566.185 215.503 567.023 214.71 567.263C213.917 567.503 213.08 567.055 212.84 566.263C210.657 559.057 208.702 551.751 206.983 544.354C206.796 543.548 207.299 542.741 208.105 542.554ZM879.319 543.676C879.507 542.869 880.313 542.366 881.12 542.554C881.927 542.741 882.429 543.548 882.241 544.354C880.523 551.751 878.569 559.057 876.386 566.263C876.145 567.055 875.307 567.503 874.515 567.263C873.722 567.022 873.274 566.185 873.514 565.393C875.678 558.249 877.616 551.007 879.319 543.676ZM381.2 373C391.472 373 399.8 381.327 399.8 391.6C399.8 401.872 408.128 410.2 418.4 410.2C428.673 410.2 437 418.528 437 428.8C437 439.072 428.673 447.4 418.4 447.4C408.128 447.4 399.8 439.072 399.8 428.8C399.8 418.527 391.473 410.2 381.2 410.2H306.8C296.527 410.2 288.2 418.527 288.2 428.8V503.2C288.2 513.473 296.527 521.8 306.8 521.8H381.2C391.473 521.8 399.8 513.473 399.8 503.2C399.8 492.928 408.128 484.6 418.4 484.6C428.673 484.6 437 492.928 437 503.2C437 513.472 428.673 521.8 418.4 521.8C408.128 521.8 399.8 530.128 399.8 540.4C399.8 550.673 391.472 559 381.2 559H306.8C296.528 559 288.2 550.673 288.2 540.4C288.2 530.128 279.872 521.8 269.6 521.8C259.327 521.8 251 513.472 251 503.2V428.8C251 418.528 259.327 410.2 269.6 410.2C279.872 410.2 288.2 401.872 288.2 391.6C288.2 381.327 296.528 373 306.8 373H381.2ZM583.2 373C593.472 373 601.8 381.327 601.8 391.6C601.8 401.872 610.128 410.2 620.4 410.2C630.673 410.2 639 418.528 639 428.8V503.2C639 513.472 630.673 521.8 620.4 521.8C610.128 521.8 601.8 530.128 601.8 540.4C601.8 550.673 593.472 559 583.2 559C572.928 559 564.6 550.673 564.6 540.4C564.6 530.128 556.272 521.8 546 521.8C535.728 521.8 527.4 530.128 527.4 540.4C527.4 550.673 519.072 559 508.8 559C498.528 559 490.2 550.673 490.2 540.4C490.2 530.128 481.872 521.8 471.6 521.8C461.327 521.8 453 513.472 453 503.2V428.8C453 418.528 461.327 410.2 471.6 410.2C481.872 410.2 490.2 401.872 490.2 391.6C490.2 381.327 498.528 373 508.8 373C519.072 373 527.4 381.327 527.4 391.6C527.4 401.872 519.072 410.2 508.8 410.2C498.527 410.2 490.2 418.527 490.2 428.8V503.2C490.2 513.473 498.527 521.8 508.8 521.8C519.072 521.8 527.4 513.473 527.4 503.2V466C527.4 455.728 535.728 447.4 546 447.4C556.272 447.4 564.6 455.728 564.6 466V503.2C564.6 513.473 572.928 521.8 583.2 521.8C593.473 521.8 601.8 513.473 601.8 503.2V428.8C601.8 418.527 593.473 410.2 583.2 410.2C572.928 410.2 564.6 401.872 564.6 391.6C564.6 381.327 572.928 373 583.2 373ZM784.2 373C794.472 373 802.8 381.327 802.8 391.6C802.8 401.872 811.128 410.2 821.4 410.2C831.673 410.2 840 418.528 840 428.8V503.2C840 513.472 831.673 521.8 821.4 521.8C811.128 521.8 802.8 530.128 802.8 540.4C802.8 550.673 794.472 559 784.2 559C773.928 559 765.6 550.673 765.6 540.4C765.6 530.128 773.928 521.8 784.2 521.8C794.473 521.8 802.8 513.473 802.8 503.2V428.8C802.8 418.527 794.473 410.2 784.2 410.2C773.928 410.2 765.6 418.527 765.6 428.8V466C765.6 476.272 757.273 484.6 747 484.6C736.727 484.6 728.4 476.272 728.4 466V428.8C728.4 418.527 720.072 410.2 709.8 410.2C699.527 410.2 691.2 418.527 691.2 428.8V503.2C691.2 513.473 699.527 521.8 709.8 521.8C720.072 521.8 728.4 530.128 728.4 540.4C728.4 550.673 720.072 559 709.8 559C699.528 559 691.2 550.673 691.2 540.4C691.2 530.128 682.872 521.8 672.6 521.8C662.327 521.8 654 513.472 654 503.2V428.8C654 418.528 662.327 410.2 672.6 410.2C682.872 410.2 691.2 401.872 691.2 391.6C691.2 381.327 699.528 373 709.8 373C720.072 373 728.4 381.327 728.4 391.6C728.4 401.872 736.727 410.2 747 410.2C757.273 410.2 765.6 401.872 765.6 391.6C765.6 381.327 773.928 373 784.2 373ZM200.993 497.96C201.818 497.88 202.551 498.483 202.631 499.308C203.362 506.816 204.334 514.254 205.54 521.612C205.674 522.43 205.12 523.201 204.303 523.335C203.485 523.469 202.714 522.915 202.58 522.098C201.363 514.674 200.383 507.171 199.646 499.598C199.565 498.773 200.169 498.04 200.993 497.96ZM888.232 497.96C889.057 498.04 889.66 498.773 889.58 499.598C888.843 507.171 887.862 514.675 886.646 522.098C886.511 522.915 885.74 523.469 884.923 523.335C884.106 523.201 883.551 522.43 883.685 521.612C884.891 514.254 885.863 506.816 886.594 499.308C886.674 498.483 887.408 497.88 888.232 497.96ZM199.73 452.797C200.558 452.824 201.208 453.517 201.182 454.345C201.061 458.086 201 461.842 201 465.612C201 469.383 201.061 473.14 201.182 476.881C201.208 477.709 200.558 478.402 199.73 478.429C198.903 478.455 198.21 477.805 198.183 476.978C198.061 473.204 198 469.415 198 465.612C198 461.81 198.061 458.021 198.183 454.248C198.209 453.42 198.903 452.77 199.73 452.797ZM889.495 452.797C890.323 452.77 891.015 453.42 891.042 454.248C891.164 458.021 891.225 461.81 891.225 465.612C891.225 469.415 891.164 473.204 891.042 476.978C891.015 477.805 890.323 478.454 889.495 478.428C888.667 478.401 888.018 477.709 888.044 476.881C888.164 473.14 888.225 469.383 888.225 465.612C888.225 461.842 888.164 458.086 888.044 454.345C888.017 453.517 888.667 452.824 889.495 452.797ZM202.58 409.128C202.714 408.31 203.485 407.757 204.303 407.891C205.12 408.025 205.674 408.796 205.54 409.613C204.334 416.972 203.362 424.41 202.631 431.918C202.55 432.742 201.817 433.346 200.993 433.266C200.169 433.185 199.565 432.451 199.646 431.627C200.383 424.053 201.363 416.551 202.58 409.128ZM884.923 407.89C885.74 407.756 886.512 408.311 886.646 409.128C887.862 416.551 888.843 424.053 889.58 431.627C889.66 432.451 889.057 433.185 888.232 433.266C887.408 433.346 886.674 432.742 886.594 431.918C885.863 424.41 884.891 416.972 883.685 409.613C883.551 408.796 884.105 408.024 884.923 407.89ZM212.84 364.963C213.08 364.17 213.917 363.722 214.71 363.962C215.503 364.202 215.951 365.04 215.711 365.833C213.547 372.976 211.608 380.218 209.905 387.55C209.718 388.356 208.912 388.858 208.105 388.671C207.299 388.483 206.796 387.678 206.983 386.871C208.702 379.475 210.657 372.169 212.84 364.963ZM874.515 363.962C875.307 363.722 876.145 364.17 876.385 364.963C878.568 372.169 880.523 379.475 882.241 386.871C882.428 387.678 881.927 388.483 881.12 388.671C880.313 388.858 879.507 388.356 879.319 387.55C877.616 380.218 875.678 372.976 873.514 365.833C873.273 365.04 873.722 364.202 874.515 363.962ZM228.82 322.524C229.163 321.77 230.052 321.436 230.807 321.778C231.561 322.121 231.895 323.009 231.553 323.764C228.463 330.573 225.588 337.501 222.938 344.538C222.645 345.313 221.78 345.705 221.005 345.413C220.23 345.121 219.838 344.256 220.13 343.481C222.803 336.382 225.703 329.393 228.82 322.524ZM858.419 321.778C859.173 321.436 860.062 321.77 860.404 322.524C863.522 329.393 866.421 336.382 869.095 343.481C869.386 344.257 868.995 345.121 868.22 345.413C867.445 345.705 866.58 345.313 866.288 344.538C863.638 337.5 860.763 330.573 857.673 323.764C857.331 323.009 857.665 322.121 858.419 321.778ZM250.228 282.555C250.666 281.852 251.591 281.637 252.294 282.075C252.997 282.513 253.212 283.439 252.773 284.142C248.815 290.494 245.058 296.986 241.512 303.607C241.12 304.337 240.211 304.612 239.48 304.221C238.751 303.829 238.476 302.921 238.867 302.19C242.445 295.511 246.234 288.963 250.228 282.555ZM836.932 282.075C837.635 281.637 838.56 281.852 838.998 282.555C842.991 288.963 846.781 295.511 850.358 302.19C850.749 302.921 850.474 303.83 849.744 304.221C849.014 304.612 848.105 304.337 847.714 303.606C844.168 296.985 840.41 290.494 836.451 284.142C836.013 283.439 836.229 282.513 836.932 282.075ZM276.668 245.72C277.194 245.08 278.139 244.987 278.779 245.513C279.419 246.039 279.511 246.984 278.985 247.624C274.23 253.412 269.66 259.359 265.284 265.454C264.801 266.127 263.864 266.281 263.191 265.798C262.519 265.315 262.365 264.378 262.848 263.705C267.261 257.557 271.871 251.558 276.668 245.72ZM810.446 245.513C811.086 244.987 812.032 245.08 812.558 245.72C817.354 251.558 821.964 257.557 826.378 263.705C826.861 264.378 826.707 265.315 826.034 265.798C825.361 266.281 824.423 266.127 823.94 265.454C819.565 259.359 814.995 253.412 810.239 247.624C809.714 246.984 809.806 246.039 810.446 245.513ZM307.671 212.631C308.275 212.065 309.225 212.096 309.791 212.7C310.357 213.305 310.326 214.254 309.722 214.82C304.25 219.947 298.947 225.25 293.82 230.722C293.254 231.326 292.305 231.357 291.7 230.791C291.096 230.225 291.065 229.275 291.631 228.671C296.802 223.152 302.152 217.802 307.671 212.631ZM779.435 212.7C780.001 212.096 780.95 212.064 781.555 212.631C787.074 217.802 792.423 223.152 797.594 228.671C798.16 229.275 798.13 230.225 797.525 230.791C796.921 231.357 795.972 231.326 795.405 230.722C790.279 225.25 784.974 219.947 779.503 214.82C778.899 214.254 778.868 213.305 779.435 212.7ZM342.705 183.848C343.378 183.365 344.315 183.518 344.798 184.191C345.281 184.864 345.127 185.801 344.454 186.284C338.359 190.66 332.412 195.23 326.624 199.985C325.984 200.511 325.039 200.419 324.513 199.779C323.987 199.139 324.08 198.194 324.72 197.668C330.558 192.871 336.557 188.261 342.705 183.848ZM744.427 184.191C744.91 183.518 745.848 183.365 746.521 183.848C752.669 188.261 758.667 192.871 764.505 197.668C765.145 198.194 765.238 199.139 764.712 199.779C764.186 200.419 763.241 200.511 762.601 199.985C756.813 195.23 750.866 190.66 744.771 186.284C744.098 185.801 743.944 184.864 744.427 184.191ZM381.19 159.867C381.921 159.476 382.829 159.751 383.221 160.48C383.612 161.211 383.337 162.121 382.606 162.512C375.986 166.058 369.494 169.815 363.142 173.773C362.439 174.211 361.513 173.997 361.075 173.294C360.637 172.591 360.852 171.666 361.555 171.228C367.963 167.234 374.511 163.445 381.19 159.867ZM706.004 160.48C706.395 159.75 707.304 159.476 708.034 159.867C714.713 163.445 721.262 167.234 727.67 171.228C728.373 171.666 728.588 172.591 728.15 173.294C727.712 173.997 726.787 174.211 726.084 173.773C719.731 169.815 713.239 166.058 706.618 162.512C705.888 162.121 705.613 161.211 706.004 160.48ZM422.481 141.13C423.257 140.838 424.121 141.23 424.413 142.005C424.705 142.78 424.313 143.646 423.538 143.938C416.501 146.588 409.573 149.463 402.764 152.553C402.01 152.895 401.121 152.56 400.778 151.807C400.436 151.052 400.77 150.163 401.524 149.82C408.393 146.703 415.382 143.803 422.481 141.13ZM664.812 142.005C665.104 141.23 665.969 140.838 666.744 141.13C673.844 143.803 680.832 146.703 687.701 149.82C688.456 150.163 688.79 151.052 688.447 151.807C688.105 152.561 687.215 152.895 686.461 152.553C679.652 149.463 672.724 146.588 665.687 143.938C664.911 143.646 664.52 142.78 664.812 142.005ZM465.871 127.983C466.678 127.796 467.483 128.299 467.671 129.105C467.858 129.912 467.356 130.718 466.55 130.905C459.218 132.608 451.976 134.547 444.833 136.711C444.04 136.951 443.202 136.503 442.962 135.71C442.722 134.917 443.17 134.08 443.963 133.84C451.169 131.657 458.475 129.702 465.871 127.983ZM621.554 129.105C621.741 128.299 622.548 127.796 623.354 127.983C630.751 129.702 638.057 131.657 645.263 133.84C646.055 134.08 646.503 134.917 646.263 135.71C646.022 136.503 645.185 136.951 644.393 136.711C637.249 134.547 630.007 132.608 622.676 130.905C621.869 130.718 621.367 129.912 621.554 129.105ZM510.627 120.646C511.452 120.565 512.185 121.169 512.266 121.993C512.345 122.817 511.742 123.551 510.918 123.631C503.41 124.362 495.972 125.334 488.613 126.54C487.796 126.674 487.024 126.12 486.89 125.303C486.756 124.485 487.311 123.714 488.128 123.58C495.551 122.363 503.053 121.383 510.627 120.646ZM578.598 120.646C586.171 121.383 593.674 122.363 601.098 123.58C601.915 123.714 602.469 124.485 602.335 125.303C602.201 126.12 601.43 126.674 600.612 126.54C593.254 125.334 585.816 124.362 578.308 123.631C577.483 123.551 576.88 122.817 576.96 121.993C577.04 121.169 577.773 120.565 578.598 120.646ZM544.612 119C548.415 119 552.204 119.061 555.978 119.183C556.805 119.209 557.454 119.903 557.428 120.73C557.401 121.558 556.709 122.208 555.881 122.182C552.14 122.061 548.383 122 544.612 122C540.842 122 537.086 122.061 533.345 122.182C532.517 122.208 531.824 121.558 531.797 120.73C531.77 119.903 532.42 119.209 533.248 119.183C537.021 119.061 540.81 119 544.612 119Z" fill="white"/>
<defs>
<linearGradient id="paint0_linear_36_3" x1="0" y1="466" x2="2328" y2="466" gradientUnits="userSpaceOnUse">
<stop stop-color="#0497FE"/>
<stop offset="0.49771" stop-color="#0563FF"/>
<stop offset="1" stop-color="#0648FF"/>
</linearGradient>
</defs>
</svg>
